<mxfile host="app.diagrams.net" modified="2022-01-29T08:58:35.852Z" agent="5.0 (Windows NT 10.0; Win64; x64) AppleWebKit/537.36 (KHTML, like Gecko) Chrome/97.0.4692.99 Safari/537.36" etag="riBq0qr8ufTs9DN856bA" version="16.5.2" type="github" pages="2">
  <diagram id="rJgiZef4j1xF5qz12_F-" name="Page-1">
    <mxGraphModel dx="1955" dy="934" grid="1" gridSize="10" guides="1" tooltips="1" connect="1" arrows="1" fold="1" page="1" pageScale="1" pageWidth="827" pageHeight="1169" math="0" shadow="0">
      <root>
        <mxCell id="0" />
        <mxCell id="1" parent="0" />
        <mxCell id="U3Zl1ZmblYE1_TfbCVX8-1" value="그래프" style="rounded=0;whiteSpace=wrap;html=1;fontSize=50;fontStyle=1;fontFamily=Noto Sans KR;fontSource=https%3A%2F%2Ffonts.googleapis.com%2Fcss%3Ffamily%3DNoto%2BSans%2BKR;" parent="1" vertex="1">
          <mxGeometry x="58.5" y="80" width="690" height="320" as="geometry" />
        </mxCell>
        <mxCell id="U3Zl1ZmblYE1_TfbCVX8-7" value="" style="group" parent="1" vertex="1" connectable="0">
          <mxGeometry x="58.5" y="488.5" width="300" height="30" as="geometry" />
        </mxCell>
        <mxCell id="U3Zl1ZmblYE1_TfbCVX8-5" value="20211231" style="rounded=0;whiteSpace=wrap;html=1;fontFamily=Courier New;fontSize=15;" parent="U3Zl1ZmblYE1_TfbCVX8-7" vertex="1">
          <mxGeometry x="100" width="200" height="30" as="geometry" />
        </mxCell>
        <mxCell id="U3Zl1ZmblYE1_TfbCVX8-6" value="기준일자" style="text;html=1;strokeColor=none;fillColor=none;align=center;verticalAlign=middle;whiteSpace=wrap;rounded=0;fontFamily=Courier New;fontSize=15;" parent="U3Zl1ZmblYE1_TfbCVX8-7" vertex="1">
          <mxGeometry width="90" height="30" as="geometry" />
        </mxCell>
        <mxCell id="U3Zl1ZmblYE1_TfbCVX8-11" value="" style="group" parent="1" vertex="1" connectable="0">
          <mxGeometry x="437.5" y="488.5" width="300" height="30" as="geometry" />
        </mxCell>
        <mxCell id="U3Zl1ZmblYE1_TfbCVX8-12" value="4.92%" style="rounded=0;whiteSpace=wrap;html=1;fontFamily=Courier New;fontSize=15;" parent="U3Zl1ZmblYE1_TfbCVX8-11" vertex="1">
          <mxGeometry x="100" width="200" height="30" as="geometry" />
        </mxCell>
        <mxCell id="U3Zl1ZmblYE1_TfbCVX8-13" value="LTFR" style="text;html=1;strokeColor=none;fillColor=none;align=center;verticalAlign=middle;whiteSpace=wrap;rounded=0;fontFamily=Courier New;fontSize=15;" parent="U3Zl1ZmblYE1_TfbCVX8-11" vertex="1">
          <mxGeometry width="90" height="30" as="geometry" />
        </mxCell>
        <mxCell id="U3Zl1ZmblYE1_TfbCVX8-30" value="화폐" style="text;html=1;strokeColor=none;fillColor=none;align=center;verticalAlign=middle;whiteSpace=wrap;rounded=0;fontFamily=Courier New;fontSize=15;" parent="1" vertex="1">
          <mxGeometry x="58.5" y="542" width="90" height="30" as="geometry" />
        </mxCell>
        <mxCell id="U3Zl1ZmblYE1_TfbCVX8-36" value="" style="group" parent="1" vertex="1" connectable="0">
          <mxGeometry x="437.5" y="528.5" width="300" height="30" as="geometry" />
        </mxCell>
        <mxCell id="U3Zl1ZmblYE1_TfbCVX8-37" value="0.495%" style="rounded=0;whiteSpace=wrap;html=1;fontFamily=Courier New;fontSize=15;" parent="U3Zl1ZmblYE1_TfbCVX8-36" vertex="1">
          <mxGeometry x="100" width="200" height="30" as="geometry" />
        </mxCell>
        <mxCell id="U3Zl1ZmblYE1_TfbCVX8-38" value="스프레드" style="text;html=1;strokeColor=none;fillColor=none;align=center;verticalAlign=middle;whiteSpace=wrap;rounded=0;fontFamily=Courier New;fontSize=15;" parent="U3Zl1ZmblYE1_TfbCVX8-36" vertex="1">
          <mxGeometry width="90" height="30" as="geometry" />
        </mxCell>
        <mxCell id="U3Zl1ZmblYE1_TfbCVX8-40" value="KRW" style="rounded=1;fillColor=#F1F2F4;strokeColor=none;html=1;fontColor=#596780;align=center;fontSize=20;spacingLeft=10;sketch=0;fontFamily=Courier New;labelPosition=center;verticalLabelPosition=middle;verticalAlign=middle;" parent="1" vertex="1">
          <mxGeometry x="158.5" y="540.5" width="200" height="33" as="geometry" />
        </mxCell>
        <mxCell id="U3Zl1ZmblYE1_TfbCVX8-41" value="" style="shape=triangle;direction=south;fillColor=#596780;strokeColor=none;html=1;sketch=0;fontFamily=Courier New;fontSize=15;" parent="U3Zl1ZmblYE1_TfbCVX8-40" vertex="1">
          <mxGeometry x="1" y="0.5" width="12" height="6" relative="1" as="geometry">
            <mxPoint x="-20" y="-3" as="offset" />
          </mxGeometry>
        </mxCell>
        <mxCell id="U3Zl1ZmblYE1_TfbCVX8-42" value="다운로드" style="rounded=1;fillColor=#0057D8;strokeColor=none;html=1;fontColor=#ffffff;align=center;verticalAlign=middle;fontStyle=0;fontSize=20;sketch=0;fontFamily=Courier New;" parent="1" vertex="1">
          <mxGeometry x="230" y="620" width="140" height="100" as="geometry" />
        </mxCell>
        <mxCell id="U3Zl1ZmblYE1_TfbCVX8-43" value="계산" style="rounded=1;fillColor=#0057D8;strokeColor=none;html=1;fontColor=#ffffff;align=center;verticalAlign=middle;fontStyle=0;fontSize=20;sketch=0;fontFamily=Courier New;" parent="1" vertex="1">
          <mxGeometry x="68.5" y="619" width="141.5" height="101" as="geometry" />
        </mxCell>
        <mxCell id="U3Zl1ZmblYE1_TfbCVX8-44" value="설정" style="text;html=1;strokeColor=none;fillColor=none;align=center;verticalAlign=middle;whiteSpace=wrap;rounded=0;fontFamily=Noto Sans KR;fontSize=20;fontStyle=1;fontSource=https%3A%2F%2Ffonts.googleapis.com%2Fcss%3Ffamily%3DNoto%2BSans%2BKR;" parent="1" vertex="1">
          <mxGeometry x="68.5" y="409" width="85" height="40" as="geometry" />
        </mxCell>
        <mxCell id="U3Zl1ZmblYE1_TfbCVX8-46" value="" style="rounded=1;arcSize=9;fillColor=#ffffff;strokeColor=#4C9AFF;html=1;strokeWidth=2;spacingLeft=30;fontColor=#000000;align=left;fontFamily=Noto Sans KR;fontSource=https%3A%2F%2Ffonts.googleapis.com%2Fcss%3Ffamily%3DNoto%2BSans%2BKR;fontSize=20;" parent="1" vertex="1">
          <mxGeometry x="537.5" y="687" width="200" height="33" as="geometry" />
        </mxCell>
        <mxCell id="U3Zl1ZmblYE1_TfbCVX8-47" value="" style="shape=step;whiteSpace=wrap;html=1;rounded=0;strokeColor=none;strokeWidth=2;fillColor=#0A1E43;gradientColor=none;fontFamily=Verdana;fontSize=14;fontColor=#000000;align=left;direction=south;size=0.65;fontSource=https%3A%2F%2Ffonts.googleapis.com%2Fcss%3Ffamily%3DNoto%2BSans%2BKR;" parent="U3Zl1ZmblYE1_TfbCVX8-46" vertex="1">
          <mxGeometry x="1" y="0.5" width="10" height="7" relative="1" as="geometry">
            <mxPoint x="-24" y="-3" as="offset" />
          </mxGeometry>
        </mxCell>
        <mxCell id="U3Zl1ZmblYE1_TfbCVX8-48" value="1" style="rounded=1;arcSize=9;fillColor=#ECEDF1;strokeColor=none;html=1;strokeWidth=2;spacingLeft=4;fontColor=#000000;align=left;fontSize=11;fontFamily=Noto Sans KR;fontSource=https%3A%2F%2Ffonts.googleapis.com%2Fcss%3Ffamily%3DNoto%2BSans%2BKR;" parent="U3Zl1ZmblYE1_TfbCVX8-46" vertex="1">
          <mxGeometry y="0.5" width="40" height="20" relative="1" as="geometry">
            <mxPoint x="5" y="-10" as="offset" />
          </mxGeometry>
        </mxCell>
        <mxCell id="U3Zl1ZmblYE1_TfbCVX8-49" value="" style="html=1;shadow=0;dashed=0;shape=mxgraph.atlassian.x;strokeColor=#58667F;strokeWidth=2;fontFamily=Noto Sans KR;fontSource=https%3A%2F%2Ffonts.googleapis.com%2Fcss%3Ffamily%3DNoto%2BSans%2BKR;fontSize=20;" parent="U3Zl1ZmblYE1_TfbCVX8-48" vertex="1">
          <mxGeometry x="1" y="0.5" width="7" height="7" relative="1" as="geometry">
            <mxPoint x="-14" y="-3" as="offset" />
          </mxGeometry>
        </mxCell>
        <mxCell id="U3Zl1ZmblYE1_TfbCVX8-62" value="2" style="rounded=1;arcSize=9;fillColor=#ECEDF1;strokeColor=none;html=1;strokeWidth=2;spacingLeft=4;fontColor=#000000;align=left;fontSize=11;fontFamily=Noto Sans KR;fontSource=https%3A%2F%2Ffonts.googleapis.com%2Fcss%3Ffamily%3DNoto%2BSans%2BKR;" parent="U3Zl1ZmblYE1_TfbCVX8-46" vertex="1">
          <mxGeometry y="0.5" width="40" height="20" relative="1" as="geometry">
            <mxPoint x="46" y="-10" as="offset" />
          </mxGeometry>
        </mxCell>
        <mxCell id="U3Zl1ZmblYE1_TfbCVX8-63" value="" style="html=1;shadow=0;dashed=0;shape=mxgraph.atlassian.x;strokeColor=#58667F;strokeWidth=2;fontFamily=Noto Sans KR;fontSource=https%3A%2F%2Ffonts.googleapis.com%2Fcss%3Ffamily%3DNoto%2BSans%2BKR;fontSize=20;" parent="U3Zl1ZmblYE1_TfbCVX8-62" vertex="1">
          <mxGeometry x="1" y="0.5" width="7" height="7" relative="1" as="geometry">
            <mxPoint x="-14" y="-3" as="offset" />
          </mxGeometry>
        </mxCell>
        <mxCell id="U3Zl1ZmblYE1_TfbCVX8-88" value="30" style="rounded=0;whiteSpace=wrap;html=1;fontFamily=Courier New;fontSize=15;" parent="U3Zl1ZmblYE1_TfbCVX8-46" vertex="1">
          <mxGeometry y="-40" width="200" height="30" as="geometry" />
        </mxCell>
        <mxCell id="U3Zl1ZmblYE1_TfbCVX8-89" value="최종관찰만기" style="text;html=1;strokeColor=none;fillColor=none;align=center;verticalAlign=middle;whiteSpace=wrap;rounded=0;fontFamily=Courier New;fontSize=15;" parent="U3Zl1ZmblYE1_TfbCVX8-46" vertex="1">
          <mxGeometry x="-109" y="-40" width="100" height="30" as="geometry" />
        </mxCell>
        <mxCell id="U3Zl1ZmblYE1_TfbCVX8-64" value="테너" style="text;html=1;strokeColor=none;fillColor=none;align=center;verticalAlign=middle;whiteSpace=wrap;rounded=0;fontFamily=Courier New;fontSize=15;" parent="1" vertex="1">
          <mxGeometry x="437.5" y="687" width="90" height="30" as="geometry" />
        </mxCell>
        <mxCell id="U3Zl1ZmblYE1_TfbCVX8-69" value="" style="endArrow=none;html=1;rounded=0;fontFamily=Noto Sans KR;fontSource=https%3A%2F%2Ffonts.googleapis.com%2Fcss%3Ffamily%3DNoto%2BSans%2BKR;fontSize=20;" parent="1" edge="1">
          <mxGeometry width="50" height="50" relative="1" as="geometry">
            <mxPoint x="68.5" y="451" as="sourcePoint" />
            <mxPoint x="751.5" y="451" as="targetPoint" />
          </mxGeometry>
        </mxCell>
        <mxCell id="U3Zl1ZmblYE1_TfbCVX8-82" value="" style="group" parent="1" vertex="1" connectable="0">
          <mxGeometry x="437.5" y="567" width="300" height="30" as="geometry" />
        </mxCell>
        <mxCell id="U3Zl1ZmblYE1_TfbCVX8-83" value="60" style="rounded=0;whiteSpace=wrap;html=1;fontFamily=Courier New;fontSize=15;" parent="U3Zl1ZmblYE1_TfbCVX8-82" vertex="1">
          <mxGeometry x="100" width="200" height="30" as="geometry" />
        </mxCell>
        <mxCell id="U3Zl1ZmblYE1_TfbCVX8-84" value="수렴시점" style="text;html=1;strokeColor=none;fillColor=none;align=center;verticalAlign=middle;whiteSpace=wrap;rounded=0;fontFamily=Courier New;fontSize=15;" parent="U3Zl1ZmblYE1_TfbCVX8-82" vertex="1">
          <mxGeometry width="90" height="30" as="geometry" />
        </mxCell>
        <mxCell id="U3Zl1ZmblYE1_TfbCVX8-86" value="2" style="rounded=0;whiteSpace=wrap;html=1;fontFamily=Courier New;fontSize=15;" parent="1" vertex="1">
          <mxGeometry x="537.5" y="607" width="200" height="30" as="geometry" />
        </mxCell>
        <mxCell id="U3Zl1ZmblYE1_TfbCVX8-87" value="이자지급주기" style="text;html=1;strokeColor=none;fillColor=none;align=center;verticalAlign=middle;whiteSpace=wrap;rounded=0;fontFamily=Courier New;fontSize=15;" parent="1" vertex="1">
          <mxGeometry x="428.5" y="607" width="100" height="30" as="geometry" />
        </mxCell>
        <mxCell id="ShQhOyUhaPXfKUH5L9Id-2" value="" style="strokeWidth=1;shadow=0;dashed=0;align=center;html=1;shape=mxgraph.mockup.forms.rrect;rSize=0;strokeColor=#999999;" vertex="1" parent="1">
          <mxGeometry x="9.5" y="10" width="800.5" height="30" as="geometry" />
        </mxCell>
        <mxCell id="ShQhOyUhaPXfKUH5L9Id-5" value="" style="strokeColor=inherit;fillColor=inherit;gradientColor=inherit;strokeWidth=1;shadow=0;dashed=0;align=center;html=1;shape=mxgraph.mockup.forms.rrect;rSize=0;fontSize=17;fontColor=#666666;" vertex="1" parent="ShQhOyUhaPXfKUH5L9Id-2">
          <mxGeometry x="266.8333333333333" width="133.41666666666666" height="30" as="geometry" />
        </mxCell>
        <mxCell id="ShQhOyUhaPXfKUH5L9Id-6" value="시뮬레이션" style="strokeColor=inherit;fillColor=inherit;gradientColor=inherit;strokeWidth=1;shadow=0;dashed=0;align=center;html=1;shape=mxgraph.mockup.forms.rrect;rSize=0;fontSize=17;fontColor=#666666;" vertex="1" parent="ShQhOyUhaPXfKUH5L9Id-2">
          <mxGeometry x="400.25" width="133.41666666666666" height="30" as="geometry" />
        </mxCell>
        <mxCell id="ShQhOyUhaPXfKUH5L9Id-7" value="데이터입력" style="strokeColor=inherit;fillColor=inherit;gradientColor=inherit;strokeWidth=1;shadow=0;dashed=0;align=center;html=1;shape=mxgraph.mockup.forms.rrect;rSize=0;fontSize=17;fontColor=#666666;" vertex="1" parent="ShQhOyUhaPXfKUH5L9Id-2">
          <mxGeometry x="533.6666666666666" width="133.41666666666666" height="30" as="geometry" />
        </mxCell>
        <mxCell id="ShQhOyUhaPXfKUH5L9Id-8" value="배치" style="strokeColor=inherit;fillColor=inherit;gradientColor=inherit;strokeWidth=1;shadow=0;dashed=0;align=center;html=1;shape=mxgraph.mockup.forms.rrect;rSize=0;fontSize=17;fontColor=#666666;" vertex="1" parent="ShQhOyUhaPXfKUH5L9Id-2">
          <mxGeometry x="667.0833333333334" width="133.41666666666666" height="30" as="geometry" />
        </mxCell>
        <mxCell id="ShQhOyUhaPXfKUH5L9Id-16" value="로고" style="rounded=0;whiteSpace=wrap;html=1;" vertex="1" parent="1">
          <mxGeometry x="9.5" y="10" width="150.5" height="30" as="geometry" />
        </mxCell>
      </root>
    </mxGraphModel>
  </diagram>
  <diagram id="jHBtU0H-Tfu-2y7nPEI_" name="Page-2">
    <mxGraphModel dx="1362" dy="828" grid="1" gridSize="10" guides="1" tooltips="1" connect="1" arrows="1" fold="1" page="1" pageScale="1" pageWidth="827" pageHeight="1169" math="0" shadow="0">
      <root>
        <mxCell id="BLjiDn2vbOYg42bQFRMa-0" />
        <mxCell id="BLjiDn2vbOYg42bQFRMa-1" parent="BLjiDn2vbOYg42bQFRMa-0" />
      </root>
    </mxGraphModel>
  </diagram>
</mxfile>
